<?xml version="1.0" encoding="UTF-8"?>
<svg xmlns="http://www.w3.org/2000/svg" xmlns:xlink="http://www.w3.org/1999/xlink" width="40px" height="40px" viewBox="0 0 40 40" version="1.1">
<g id="surface1">
<path style=" stroke:none;fill-rule:nonzero;fill:rgb(0%,0%,0%);fill-opacity:1;" d="M 0 20 L 0 40 L 40 40 L 40 0 L 0 0 Z M 12.027344 16.871094 C 12.230469 16.984375 12.355469 16.984375 12.472656 16.871094 C 12.6875 16.65625 13.214844 16.671875 13.414062 16.914062 C 13.515625 17.042969 13.570312 17.472656 13.542969 18.015625 C 13.5 18.8125 13.457031 18.941406 13.15625 19.101562 C 12.84375 19.257812 12.742188 19.214844 12.242188 18.769531 C 11.769531 18.34375 11.613281 18.269531 11.101562 18.3125 C 10.6875 18.34375 10.484375 18.429688 10.457031 18.601562 C 10.414062 18.8125 10.65625 18.914062 11.527344 19.085938 C 11.941406 19.15625 12.8125 19.484375 13.113281 19.6875 C 14.214844 20.398438 14.058594 22.257812 12.828125 23 C 12.3125 23.3125 11.144531 23.386719 10.515625 23.144531 C 10.285156 23.058594 10.128906 23.058594 10.070312 23.144531 C 9.929688 23.371094 9.398438 23.3125 9.113281 23.042969 C 8.757812 22.730469 8.742188 21.070312 9.101562 20.6875 C 9.429688 20.328125 9.800781 20.371094 10.101562 20.800781 C 10.628906 21.558594 10.84375 21.714844 11.398438 21.714844 C 12.058594 21.714844 12.328125 21.542969 12.257812 21.199219 C 12.214844 20.941406 11.929688 20.8125 10.398438 20.371094 C 9.34375 20.070312 9 19.644531 9 18.6875 C 9 17.457031 9.785156 16.730469 11.113281 16.714844 C 11.457031 16.714844 11.871094 16.785156 12.027344 16.871094 Z M 18.101562 16.871094 C 18.644531 17.070312 19.257812 17.671875 19.585938 18.3125 C 19.972656 19.058594 19.972656 20.941406 19.585938 21.6875 C 18.957031 22.898438 18.199219 23.34375 16.929688 23.257812 C 15.8125 23.1875 15.1875 22.757812 14.65625 21.6875 C 13.828125 20.015625 14.429688 17.742188 15.898438 17.015625 C 16.558594 16.6875 17.472656 16.628906 18.101562 16.871094 Z M 23.855469 16.871094 C 25.386719 17.214844 26.070312 18.914062 25.214844 20.1875 C 24.742188 20.871094 24.1875 21.144531 23.285156 21.144531 C 22.671875 21.144531 22.570312 21.1875 22.570312 21.429688 C 22.570312 21.644531 22.671875 21.714844 22.972656 21.714844 C 23.769531 21.730469 24.128906 22.457031 23.613281 23.027344 C 23.429688 23.242188 23.15625 23.285156 21.984375 23.285156 C 20.515625 23.285156 20.269531 23.1875 20.070312 22.558594 C 19.957031 22.230469 20.398438 21.714844 20.785156 21.714844 C 20.972656 21.714844 21 21.441406 21 20 C 21 18.5 20.972656 18.285156 20.757812 18.285156 C 20.457031 18.285156 20 17.871094 20 17.613281 C 20 17.5 20.15625 17.257812 20.355469 17.070312 C 20.671875 16.742188 20.8125 16.714844 21.957031 16.714844 C 22.644531 16.714844 23.5 16.785156 23.855469 16.871094 Z M 29.214844 16.855469 C 29.472656 16.957031 29.65625 16.941406 29.855469 16.828125 C 30.058594 16.699219 30.214844 16.699219 30.484375 16.828125 C 30.828125 16.984375 30.855469 17.070312 30.855469 17.898438 C 30.855469 19.230469 30.386719 19.515625 29.472656 18.714844 C 29 18.300781 28.457031 18.171875 27.941406 18.371094 C 27.585938 18.515625 27.6875 18.84375 28.113281 18.929688 C 29.058594 19.128906 30.085938 19.484375 30.441406 19.757812 C 31.5 20.527344 31.3125 22.269531 30.113281 23 C 29.601562 23.3125 28.429688 23.386719 27.800781 23.144531 C 27.570312 23.058594 27.414062 23.058594 27.355469 23.144531 C 27.214844 23.371094 26.6875 23.3125 26.398438 23.042969 C 26.199219 22.855469 26.144531 22.601562 26.144531 21.84375 C 26.144531 20.957031 26.171875 20.84375 26.484375 20.644531 C 26.800781 20.429688 26.871094 20.429688 27.1875 20.628906 C 27.371094 20.757812 27.601562 21.015625 27.6875 21.214844 C 27.871094 21.601562 28.300781 21.757812 29.015625 21.6875 C 29.34375 21.65625 29.515625 21.558594 29.542969 21.371094 C 29.628906 20.984375 29.429688 20.871094 28.199219 20.558594 C 27.484375 20.386719 26.941406 20.15625 26.730469 19.941406 C 26.128906 19.328125 26.085938 18.042969 26.671875 17.398438 C 27.214844 16.785156 28.386719 16.542969 29.214844 16.855469 Z M 29.214844 16.855469 "/>
<path style=" stroke:none;fill-rule:nonzero;fill:rgb(0%,0%,0%);fill-opacity:1;" d="M 10.199219 17.269531 C 9.714844 17.484375 9.285156 18.144531 9.285156 18.671875 C 9.285156 19.414062 9.886719 19.929688 10.972656 20.144531 C 12.171875 20.386719 12.714844 20.742188 12.714844 21.269531 C 12.714844 21.8125 12.257812 22.144531 11.527344 22.144531 C 10.800781 22.144531 10.230469 21.828125 10 21.285156 C 9.886719 21.027344 9.714844 20.855469 9.558594 20.855469 C 9.3125 20.855469 9.285156 20.972656 9.285156 21.871094 C 9.285156 22.828125 9.300781 22.871094 9.613281 22.828125 C 9.855469 22.800781 9.914062 22.699219 9.886719 22.429688 L 9.84375 22.085938 L 10.144531 22.386719 C 10.730469 23.027344 12.398438 22.984375 13.058594 22.328125 C 13.34375 22.042969 13.429688 21.8125 13.429688 21.328125 C 13.429688 20.214844 13.058594 19.886719 11.328125 19.484375 C 10.042969 19.199219 9.6875 18.742188 10.285156 18.144531 C 10.484375 17.941406 10.757812 17.855469 11.230469 17.855469 C 11.785156 17.855469 11.957031 17.929688 12.386719 18.355469 C 13.070312 19.042969 13.285156 18.929688 13.285156 17.929688 C 13.285156 17.1875 13.269531 17.144531 12.929688 17.144531 C 12.65625 17.144531 12.570312 17.214844 12.570312 17.457031 C 12.570312 17.757812 12.558594 17.757812 12.285156 17.5 C 11.957031 17.199219 10.6875 17.070312 10.199219 17.269531 Z M 10.199219 17.269531 "/>
<path style=" stroke:none;fill-rule:nonzero;fill:rgb(0%,0%,0%);fill-opacity:1;" d="M 16.015625 17.386719 C 15.757812 17.515625 15.355469 17.914062 15.128906 18.269531 C 14.34375 19.527344 14.671875 21.6875 15.769531 22.472656 C 16.285156 22.84375 17.472656 22.957031 18.085938 22.6875 C 20.042969 21.84375 20.058594 18.144531 18.101562 17.3125 C 17.515625 17.070312 16.601562 17.101562 16.015625 17.386719 Z M 18.214844 18.328125 C 19.441406 19.558594 18.757812 22.144531 17.199219 22.144531 C 16.886719 22.144531 16.484375 22.058594 16.300781 21.957031 C 15.457031 21.527344 15.15625 19.8125 15.714844 18.699219 C 16.042969 18.070312 16.371094 17.886719 17.199219 17.871094 C 17.628906 17.855469 17.84375 17.957031 18.214844 18.328125 Z M 18.214844 18.328125 "/>
<path style=" stroke:none;fill-rule:nonzero;fill:rgb(0%,0%,0%);fill-opacity:1;" d="M 16.269531 18.699219 C 15.914062 19.070312 15.855469 19.230469 15.855469 19.929688 C 15.855469 20.769531 16.128906 21.484375 16.5 21.628906 C 16.984375 21.8125 17.570312 21.699219 17.957031 21.371094 C 18.328125 21.058594 18.355469 20.941406 18.355469 20 C 18.355469 19.058594 18.328125 18.941406 17.957031 18.628906 C 17.398438 18.15625 16.800781 18.1875 16.269531 18.699219 Z M 16.269531 18.699219 "/>
<path style=" stroke:none;fill-rule:nonzero;fill:rgb(0%,0%,0%);fill-opacity:1;" d="M 20.429688 17.570312 C 20.429688 17.800781 20.527344 17.855469 20.929688 17.855469 L 21.429688 17.855469 L 21.429688 22.144531 L 20.929688 22.144531 C 20.527344 22.144531 20.429688 22.199219 20.429688 22.429688 C 20.429688 22.699219 20.527344 22.714844 22.015625 22.714844 C 23.441406 22.714844 23.585938 22.6875 23.542969 22.457031 C 23.515625 22.269531 23.328125 22.199219 22.8125 22.171875 L 22.144531 22.128906 L 22.144531 20.714844 L 23.042969 20.714844 C 24.5 20.714844 25.230469 20.101562 25.199219 18.898438 C 25.1875 18.328125 25.113281 18.171875 24.671875 17.757812 L 24.144531 17.285156 L 22.285156 17.285156 C 20.527344 17.285156 20.429688 17.300781 20.429688 17.570312 Z M 24.085938 18.1875 C 24.570312 18.613281 24.613281 19.3125 24.171875 19.742188 C 23.941406 19.972656 23.644531 20.070312 23 20.113281 L 22.144531 20.171875 L 22.144531 17.855469 L 22.914062 17.855469 C 23.527344 17.855469 23.785156 17.929688 24.085938 18.1875 Z M 24.085938 18.1875 "/>
<path style=" stroke:none;fill-rule:nonzero;fill:rgb(0%,0%,0%);fill-opacity:1;" d="M 22.570312 19 C 22.570312 19.644531 22.601562 19.714844 22.898438 19.699219 C 23.558594 19.671875 23.914062 19.484375 24.015625 19.144531 C 24.144531 18.628906 23.785156 18.285156 23.113281 18.285156 L 22.570312 18.285156 Z M 22.570312 19 "/>
<path style=" stroke:none;fill-rule:nonzero;fill:rgb(0%,0%,0%);fill-opacity:1;" d="M 27.484375 17.269531 C 26.714844 17.613281 26.300781 18.84375 26.769531 19.457031 C 27 19.769531 27.730469 20.070312 28.515625 20.199219 C 29.429688 20.355469 30 20.769531 30 21.269531 C 30 21.8125 29.558594 22.144531 28.828125 22.144531 C 28.101562 22.144531 27.613281 21.898438 27.269531 21.328125 C 26.785156 20.542969 26.570312 20.699219 26.570312 21.871094 C 26.570312 22.828125 26.585938 22.871094 26.898438 22.828125 C 27.144531 22.800781 27.199219 22.699219 27.171875 22.429688 L 27.128906 22.085938 L 27.429688 22.386719 C 28.042969 23.058594 29.742188 22.984375 30.355469 22.269531 C 30.742188 21.800781 30.84375 20.929688 30.558594 20.398438 C 30.371094 20.042969 29.484375 19.65625 28.386719 19.429688 C 27.757812 19.300781 27.515625 19.1875 27.398438 18.929688 C 26.898438 17.84375 28.871094 17.429688 29.742188 18.441406 C 30.300781 19.101562 30.570312 18.929688 30.570312 17.929688 C 30.570312 17.1875 30.558594 17.144531 30.214844 17.144531 C 29.941406 17.144531 29.855469 17.214844 29.855469 17.457031 C 29.855469 17.757812 29.84375 17.757812 29.570312 17.5 C 29.242188 17.199219 27.972656 17.070312 27.484375 17.269531 Z M 27.484375 17.269531 "/>
</g>
</svg>
