<?xml version="1.0" encoding="UTF-8"?>
<svg xmlns="http://www.w3.org/2000/svg" xmlns:xlink="http://www.w3.org/1999/xlink" width="40px" height="40px" viewBox="0 0 40 40" version="1.1" style="background-color:white">
<g id="surface1">
<path style=" stroke:none;fill-rule:nonzero;fill:rgb(0%,0%,0%);fill-opacity:1;" d="M 0 20 L 0 40 L 40 40 L 40 0 L 0 0 Z M 12.058594 17.355469 C 12.429688 17.558594 12.484375 17.558594 12.644531 17.328125 C 12.972656 16.886719 13.285156 17.199219 13.285156 17.984375 C 13.285156 18.871094 13.085938 18.957031 12.386719 18.34375 C 11.957031 17.941406 11.742188 17.855469 11.214844 17.855469 C 10.757812 17.855469 10.484375 17.941406 10.285156 18.144531 C 9.6875 18.742188 10.042969 19.199219 11.328125 19.484375 C 13.015625 19.871094 13.429688 20.214844 13.429688 21.214844 C 13.429688 21.785156 13.230469 22.257812 12.871094 22.527344 C 12.328125 22.941406 10.65625 22.929688 10.230469 22.5 C 10.058594 22.328125 10.015625 22.328125 9.957031 22.570312 C 9.914062 22.742188 9.757812 22.855469 9.585938 22.855469 C 9.3125 22.855469 9.285156 22.769531 9.285156 21.855469 C 9.285156 20.972656 9.3125 20.855469 9.558594 20.855469 C 9.714844 20.855469 9.886719 21.027344 10 21.285156 C 10.230469 21.828125 10.800781 22.144531 11.527344 22.144531 C 12.257812 22.144531 12.714844 21.8125 12.714844 21.269531 C 12.714844 20.742188 12.171875 20.386719 10.972656 20.144531 C 9.886719 19.929688 9.285156 19.414062 9.285156 18.671875 C 9.285156 18.128906 9.714844 17.472656 10.199219 17.285156 C 10.6875 17.085938 11.613281 17.128906 12.058594 17.355469 Z M 18.101562 17.3125 C 19.644531 17.972656 20.070312 20.628906 18.886719 22.070312 C 18.398438 22.65625 17.785156 22.886719 16.914062 22.828125 C 15.441406 22.699219 14.644531 21.601562 14.742188 19.8125 C 14.828125 18.128906 15.6875 17.15625 17.085938 17.144531 C 17.414062 17.144531 17.871094 17.230469 18.101562 17.3125 Z M 29.34375 17.355469 C 29.84375 17.628906 29.855469 17.628906 29.855469 17.34375 C 29.855469 17.199219 29.957031 17.144531 30.1875 17.171875 C 30.457031 17.214844 30.5 17.3125 30.542969 17.941406 C 30.601562 18.871094 30.328125 19.042969 29.742188 18.414062 C 28.828125 17.429688 26.914062 17.855469 27.398438 18.929688 C 27.515625 19.1875 27.757812 19.300781 28.386719 19.429688 C 29.484375 19.65625 30.371094 20.042969 30.558594 20.398438 C 30.855469 20.957031 30.742188 21.8125 30.328125 22.285156 C 30 22.644531 29.785156 22.742188 29.144531 22.8125 C 28.601562 22.871094 28.1875 22.828125 27.828125 22.671875 C 27.386719 22.484375 27.300781 22.484375 27.230469 22.65625 C 27.1875 22.769531 27.015625 22.855469 26.855469 22.855469 C 26.601562 22.855469 26.570312 22.769531 26.570312 21.855469 C 26.570312 20.699219 26.785156 20.542969 27.269531 21.328125 C 27.613281 21.898438 28.101562 22.144531 28.828125 22.144531 C 29.558594 22.144531 30 21.8125 30 21.269531 C 30 20.769531 29.429688 20.355469 28.515625 20.199219 C 27.113281 19.972656 26.570312 19.515625 26.570312 18.585938 C 26.570312 18.128906 27.042969 17.457031 27.484375 17.285156 C 27.972656 17.085938 28.898438 17.128906 29.34375 17.355469 Z M 24.558594 17.644531 C 25.414062 18.371094 25.441406 19.527344 24.628906 20.300781 C 24.328125 20.585938 24.085938 20.644531 23.199219 20.6875 L 22.144531 20.742188 L 22.144531 22.128906 L 22.8125 22.171875 C 23.328125 22.199219 23.515625 22.269531 23.542969 22.457031 C 23.585938 22.6875 23.441406 22.714844 22.015625 22.714844 C 20.527344 22.714844 20.429688 22.699219 20.429688 22.429688 C 20.429688 22.199219 20.527344 22.144531 20.929688 22.144531 L 21.429688 22.144531 L 21.429688 17.855469 L 20.929688 17.855469 C 20.527344 17.855469 20.429688 17.800781 20.429688 17.570312 C 20.429688 17.300781 20.527344 17.285156 22.269531 17.285156 C 24.042969 17.285156 24.144531 17.300781 24.558594 17.644531 Z M 24.558594 17.644531 "/>
<path style=" stroke:none;fill-rule:nonzero;fill:rgb(0%,0%,0%);fill-opacity:1;" d="M 16.328125 18 C 15.5 18.328125 15.15625 20.199219 15.714844 21.300781 C 16.230469 22.285156 17.429688 22.457031 18.214844 21.671875 C 19.441406 20.441406 18.757812 17.84375 17.199219 17.871094 C 16.886719 17.871094 16.5 17.929688 16.328125 18 Z M 16.328125 18 "/>
<path style=" stroke:none;fill-rule:nonzero;fill:rgb(0%,0%,0%);fill-opacity:1;" d="M 22.144531 19.015625 L 22.144531 20.171875 L 23 20.113281 C 24.058594 20.042969 24.429688 19.742188 24.429688 18.984375 C 24.429688 18.230469 23.929688 17.855469 22.914062 17.855469 L 22.144531 17.855469 Z M 22.144531 19.015625 "/>
</g>
</svg>
