<?xml version="1.0" encoding="UTF-8"?>
<svg xmlns="http://www.w3.org/2000/svg" xmlns:xlink="http://www.w3.org/1999/xlink" width="15px" height="15px" viewBox="0 0 15 15" version="1.1">
<g id="surface1">
<path style=" stroke:none;fill-rule:nonzero;fill:rgb(0%,0%,0%);fill-opacity:1;" d="M 0 7.5 L 0 15 L 15 15 L 15 0 L 0 0 Z M 4.511719 6.328125 C 4.585938 6.371094 4.632812 6.371094 4.675781 6.328125 C 4.757812 6.246094 4.957031 6.25 5.03125 6.34375 C 5.066406 6.390625 5.089844 6.550781 5.078125 6.753906 C 5.0625 7.054688 5.046875 7.105469 4.933594 7.164062 C 4.816406 7.222656 4.777344 7.207031 4.589844 7.039062 C 4.414062 6.878906 4.355469 6.851562 4.164062 6.867188 C 4.007812 6.878906 3.933594 6.910156 3.921875 6.976562 C 3.90625 7.054688 3.996094 7.09375 4.324219 7.15625 C 4.480469 7.183594 4.804688 7.308594 4.917969 7.382812 C 5.332031 7.648438 5.269531 8.347656 4.8125 8.625 C 4.617188 8.742188 4.179688 8.769531 3.941406 8.679688 C 3.855469 8.644531 3.796875 8.644531 3.777344 8.679688 C 3.722656 8.765625 3.523438 8.742188 3.417969 8.640625 C 3.285156 8.523438 3.277344 7.902344 3.414062 7.757812 C 3.535156 7.625 3.675781 7.640625 3.789062 7.800781 C 3.984375 8.082031 4.066406 8.144531 4.273438 8.144531 C 4.519531 8.144531 4.625 8.078125 4.597656 7.949219 C 4.582031 7.855469 4.472656 7.804688 3.898438 7.640625 C 3.503906 7.527344 3.375 7.367188 3.375 7.007812 C 3.375 6.546875 3.667969 6.273438 4.167969 6.269531 C 4.296875 6.269531 4.453125 6.292969 4.511719 6.328125 Z M 6.789062 6.328125 C 6.992188 6.402344 7.222656 6.625 7.34375 6.867188 C 7.488281 7.144531 7.488281 7.855469 7.34375 8.132812 C 7.109375 8.585938 6.824219 8.753906 6.347656 8.722656 C 5.929688 8.695312 5.695312 8.535156 5.496094 8.132812 C 5.1875 7.503906 5.410156 6.652344 5.960938 6.378906 C 6.207031 6.257812 6.550781 6.234375 6.789062 6.328125 Z M 8.945312 6.328125 C 9.519531 6.457031 9.777344 7.09375 9.457031 7.570312 C 9.277344 7.828125 9.070312 7.929688 8.730469 7.929688 C 8.5 7.929688 8.464844 7.945312 8.464844 8.035156 C 8.464844 8.117188 8.5 8.144531 8.613281 8.144531 C 8.914062 8.148438 9.046875 8.421875 8.855469 8.636719 C 8.785156 8.714844 8.683594 8.730469 8.246094 8.730469 C 7.691406 8.730469 7.601562 8.695312 7.527344 8.457031 C 7.484375 8.335938 7.648438 8.144531 7.792969 8.144531 C 7.863281 8.144531 7.875 8.042969 7.875 7.5 C 7.875 6.9375 7.863281 6.855469 7.785156 6.855469 C 7.671875 6.855469 7.5 6.703125 7.5 6.605469 C 7.5 6.5625 7.558594 6.472656 7.632812 6.402344 C 7.75 6.277344 7.804688 6.269531 8.234375 6.269531 C 8.492188 6.269531 8.8125 6.292969 8.945312 6.328125 Z M 10.957031 6.320312 C 11.050781 6.359375 11.121094 6.355469 11.195312 6.3125 C 11.269531 6.261719 11.332031 6.261719 11.433594 6.3125 C 11.5625 6.371094 11.570312 6.402344 11.570312 6.710938 C 11.570312 7.210938 11.394531 7.316406 11.050781 7.019531 C 10.875 6.863281 10.671875 6.8125 10.480469 6.890625 C 10.34375 6.941406 10.382812 7.066406 10.542969 7.097656 C 10.894531 7.171875 11.28125 7.308594 11.417969 7.410156 C 11.8125 7.699219 11.742188 8.351562 11.292969 8.625 C 11.101562 8.742188 10.660156 8.769531 10.425781 8.679688 C 10.339844 8.644531 10.28125 8.644531 10.257812 8.679688 C 10.207031 8.765625 10.007812 8.742188 9.898438 8.640625 C 9.824219 8.570312 9.804688 8.476562 9.804688 8.191406 C 9.804688 7.859375 9.8125 7.816406 9.933594 7.742188 C 10.050781 7.660156 10.078125 7.660156 10.195312 7.734375 C 10.265625 7.785156 10.351562 7.878906 10.382812 7.957031 C 10.453125 8.101562 10.613281 8.160156 10.878906 8.132812 C 11.003906 8.121094 11.066406 8.082031 11.078125 8.015625 C 11.109375 7.871094 11.035156 7.828125 10.574219 7.707031 C 10.308594 7.644531 10.105469 7.558594 10.023438 7.480469 C 9.796875 7.25 9.78125 6.765625 10 6.523438 C 10.207031 6.292969 10.644531 6.203125 10.957031 6.320312 Z M 10.957031 6.320312 "/>
<path style=" stroke:none;fill-rule:nonzero;fill:rgb(0%,0%,0%);fill-opacity:1;" d="M 3.824219 6.476562 C 3.644531 6.558594 3.480469 6.804688 3.480469 7 C 3.480469 7.28125 3.707031 7.472656 4.113281 7.554688 C 4.5625 7.644531 4.769531 7.777344 4.769531 7.976562 C 4.769531 8.179688 4.597656 8.304688 4.324219 8.304688 C 4.050781 8.304688 3.835938 8.1875 3.75 7.980469 C 3.707031 7.886719 3.644531 7.820312 3.582031 7.820312 C 3.492188 7.820312 3.480469 7.863281 3.480469 8.203125 C 3.480469 8.5625 3.488281 8.578125 3.605469 8.5625 C 3.695312 8.550781 3.71875 8.511719 3.707031 8.410156 L 3.691406 8.28125 L 3.804688 8.394531 C 4.023438 8.636719 4.648438 8.621094 4.894531 8.375 C 5.003906 8.265625 5.035156 8.179688 5.035156 8 C 5.035156 7.582031 4.894531 7.457031 4.25 7.308594 C 3.765625 7.199219 3.632812 7.027344 3.855469 6.804688 C 3.933594 6.730469 4.035156 6.695312 4.210938 6.695312 C 4.417969 6.695312 4.484375 6.722656 4.644531 6.882812 C 4.902344 7.140625 4.980469 7.097656 4.980469 6.722656 C 4.980469 6.445312 4.976562 6.429688 4.847656 6.429688 C 4.746094 6.429688 4.714844 6.457031 4.714844 6.546875 C 4.714844 6.660156 4.707031 6.660156 4.605469 6.5625 C 4.484375 6.449219 4.007812 6.402344 3.824219 6.476562 Z M 3.824219 6.476562 "/>
<path style=" stroke:none;fill-rule:nonzero;fill:rgb(0%,0%,0%);fill-opacity:1;" d="M 6.003906 6.519531 C 5.910156 6.566406 5.757812 6.71875 5.671875 6.851562 C 5.378906 7.324219 5.5 8.132812 5.914062 8.425781 C 6.105469 8.566406 6.550781 8.609375 6.78125 8.507812 C 7.515625 8.191406 7.519531 6.804688 6.789062 6.492188 C 6.566406 6.402344 6.226562 6.414062 6.003906 6.519531 Z M 6.832031 6.875 C 7.292969 7.332031 7.035156 8.304688 6.449219 8.304688 C 6.332031 8.304688 6.183594 8.269531 6.113281 8.234375 C 5.796875 8.074219 5.683594 7.429688 5.894531 7.011719 C 6.015625 6.777344 6.140625 6.707031 6.449219 6.703125 C 6.609375 6.695312 6.691406 6.734375 6.832031 6.875 Z M 6.832031 6.875 "/>
<path style=" stroke:none;fill-rule:nonzero;fill:rgb(0%,0%,0%);fill-opacity:1;" d="M 6.101562 7.011719 C 5.96875 7.152344 5.945312 7.210938 5.945312 7.472656 C 5.945312 7.789062 6.046875 8.058594 6.1875 8.109375 C 6.371094 8.179688 6.589844 8.136719 6.734375 8.015625 C 6.875 7.894531 6.882812 7.855469 6.882812 7.5 C 6.882812 7.144531 6.875 7.105469 6.734375 6.984375 C 6.523438 6.808594 6.300781 6.820312 6.101562 7.011719 Z M 6.101562 7.011719 "/>
<path style=" stroke:none;fill-rule:nonzero;fill:rgb(0%,0%,0%);fill-opacity:1;" d="M 7.660156 6.589844 C 7.660156 6.675781 7.699219 6.695312 7.847656 6.695312 L 8.035156 6.695312 L 8.035156 8.304688 L 7.847656 8.304688 C 7.699219 8.304688 7.660156 8.324219 7.660156 8.410156 C 7.660156 8.511719 7.699219 8.519531 8.253906 8.519531 C 8.792969 8.519531 8.84375 8.507812 8.828125 8.421875 C 8.816406 8.351562 8.75 8.324219 8.554688 8.3125 L 8.304688 8.296875 L 8.304688 7.769531 L 8.640625 7.769531 C 9.1875 7.769531 9.460938 7.539062 9.449219 7.085938 C 9.445312 6.875 9.417969 6.8125 9.25 6.660156 L 9.054688 6.480469 L 8.355469 6.480469 C 7.699219 6.480469 7.660156 6.488281 7.660156 6.589844 Z M 9.03125 6.820312 C 9.214844 6.980469 9.230469 7.242188 9.0625 7.402344 C 8.980469 7.488281 8.867188 7.527344 8.625 7.542969 L 8.304688 7.5625 L 8.304688 6.695312 L 8.59375 6.695312 C 8.824219 6.695312 8.917969 6.722656 9.03125 6.820312 Z M 9.03125 6.820312 "/>
<path style=" stroke:none;fill-rule:nonzero;fill:rgb(0%,0%,0%);fill-opacity:1;" d="M 8.464844 7.125 C 8.464844 7.367188 8.476562 7.394531 8.585938 7.386719 C 8.832031 7.375 8.96875 7.308594 9.003906 7.179688 C 9.054688 6.984375 8.917969 6.855469 8.667969 6.855469 L 8.464844 6.855469 Z M 8.464844 7.125 "/>
<path style=" stroke:none;fill-rule:nonzero;fill:rgb(0%,0%,0%);fill-opacity:1;" d="M 10.308594 6.476562 C 10.019531 6.605469 9.863281 7.066406 10.039062 7.296875 C 10.125 7.414062 10.398438 7.527344 10.691406 7.574219 C 11.035156 7.632812 11.25 7.789062 11.25 7.976562 C 11.25 8.179688 11.082031 8.304688 10.8125 8.304688 C 10.539062 8.304688 10.355469 8.210938 10.226562 8 C 10.042969 7.703125 9.964844 7.761719 9.964844 8.203125 C 9.964844 8.5625 9.96875 8.578125 10.085938 8.5625 C 10.179688 8.550781 10.199219 8.511719 10.1875 8.410156 L 10.171875 8.28125 L 10.285156 8.394531 C 10.515625 8.644531 11.152344 8.621094 11.382812 8.351562 C 11.527344 8.175781 11.566406 7.847656 11.457031 7.648438 C 11.390625 7.515625 11.058594 7.371094 10.644531 7.285156 C 10.410156 7.238281 10.316406 7.195312 10.273438 7.097656 C 10.085938 6.691406 10.828125 6.535156 11.152344 6.917969 C 11.363281 7.164062 11.464844 7.097656 11.464844 6.722656 C 11.464844 6.445312 11.457031 6.429688 11.332031 6.429688 C 11.230469 6.429688 11.195312 6.457031 11.195312 6.546875 C 11.195312 6.660156 11.191406 6.660156 11.089844 6.5625 C 10.964844 6.449219 10.488281 6.402344 10.308594 6.476562 Z M 10.308594 6.476562 "/>
</g>
</svg>
