<?xml version="1.0" encoding="UTF-8"?>
<svg xmlns="http://www.w3.org/2000/svg" xmlns:xlink="http://www.w3.org/1999/xlink" width="15px" height="15px" viewBox="0 0 15 15" version="1.1" style="background-color:white">
<g id="surface1">
<path style=" stroke:none;fill-rule:nonzero;fill:rgb(0%,0%,0%);fill-opacity:1;" d="M 0 7.5 L 0 15 L 15 15 L 15 0 L 0 0 Z M 4.519531 6.507812 C 4.660156 6.582031 4.683594 6.582031 4.742188 6.5 C 4.863281 6.332031 4.980469 6.449219 4.980469 6.746094 C 4.980469 7.078125 4.90625 7.109375 4.644531 6.878906 C 4.484375 6.730469 4.402344 6.695312 4.207031 6.695312 C 4.035156 6.695312 3.933594 6.730469 3.855469 6.804688 C 3.632812 7.027344 3.765625 7.199219 4.25 7.308594 C 4.878906 7.453125 5.035156 7.582031 5.035156 7.957031 C 5.035156 8.167969 4.960938 8.347656 4.828125 8.449219 C 4.625 8.605469 3.996094 8.597656 3.835938 8.4375 C 3.769531 8.375 3.753906 8.375 3.734375 8.464844 C 3.71875 8.527344 3.660156 8.570312 3.59375 8.570312 C 3.492188 8.570312 3.480469 8.539062 3.480469 8.195312 C 3.480469 7.863281 3.492188 7.820312 3.582031 7.820312 C 3.644531 7.820312 3.707031 7.886719 3.75 7.980469 C 3.835938 8.1875 4.050781 8.304688 4.324219 8.304688 C 4.597656 8.304688 4.769531 8.179688 4.769531 7.976562 C 4.769531 7.777344 4.5625 7.644531 4.113281 7.554688 C 3.707031 7.472656 3.480469 7.28125 3.480469 7 C 3.480469 6.796875 3.644531 6.550781 3.824219 6.480469 C 4.007812 6.40625 4.355469 6.421875 4.519531 6.507812 Z M 6.789062 6.492188 C 7.367188 6.738281 7.527344 7.734375 7.082031 8.277344 C 6.898438 8.496094 6.667969 8.582031 6.34375 8.5625 C 5.792969 8.511719 5.492188 8.101562 5.527344 7.429688 C 5.5625 6.796875 5.882812 6.433594 6.40625 6.429688 C 6.53125 6.429688 6.703125 6.460938 6.789062 6.492188 Z M 11.003906 6.507812 C 11.191406 6.609375 11.195312 6.609375 11.195312 6.503906 C 11.195312 6.449219 11.234375 6.429688 11.320312 6.4375 C 11.421875 6.457031 11.4375 6.492188 11.453125 6.730469 C 11.476562 7.078125 11.375 7.140625 11.152344 6.90625 C 10.8125 6.535156 10.09375 6.695312 10.273438 7.097656 C 10.316406 7.195312 10.410156 7.238281 10.644531 7.285156 C 11.058594 7.371094 11.390625 7.515625 11.457031 7.648438 C 11.570312 7.859375 11.527344 8.179688 11.375 8.355469 C 11.25 8.492188 11.167969 8.527344 10.929688 8.554688 C 10.726562 8.578125 10.570312 8.5625 10.4375 8.5 C 10.269531 8.433594 10.238281 8.433594 10.210938 8.496094 C 10.195312 8.539062 10.128906 8.570312 10.070312 8.570312 C 9.976562 8.570312 9.964844 8.539062 9.964844 8.195312 C 9.964844 7.761719 10.042969 7.703125 10.226562 8 C 10.355469 8.210938 10.539062 8.304688 10.8125 8.304688 C 11.082031 8.304688 11.25 8.179688 11.25 7.976562 C 11.25 7.789062 11.035156 7.632812 10.691406 7.574219 C 10.167969 7.488281 9.964844 7.316406 9.964844 6.96875 C 9.964844 6.796875 10.140625 6.546875 10.308594 6.480469 C 10.488281 6.40625 10.835938 6.421875 11.003906 6.507812 Z M 9.207031 6.617188 C 9.53125 6.890625 9.542969 7.324219 9.234375 7.613281 C 9.125 7.71875 9.03125 7.742188 8.699219 7.757812 L 8.304688 7.777344 L 8.304688 8.296875 L 8.554688 8.3125 C 8.75 8.324219 8.816406 8.351562 8.828125 8.421875 C 8.84375 8.507812 8.792969 8.519531 8.253906 8.519531 C 7.699219 8.519531 7.660156 8.511719 7.660156 8.410156 C 7.660156 8.324219 7.699219 8.304688 7.847656 8.304688 L 8.035156 8.304688 L 8.035156 6.695312 L 7.847656 6.695312 C 7.699219 6.695312 7.660156 6.675781 7.660156 6.589844 C 7.660156 6.488281 7.699219 6.480469 8.351562 6.480469 C 9.015625 6.480469 9.054688 6.488281 9.207031 6.617188 Z M 9.207031 6.617188 "/>
<path style=" stroke:none;fill-rule:nonzero;fill:rgb(0%,0%,0%);fill-opacity:1;" d="M 6.125 6.75 C 5.8125 6.875 5.683594 7.574219 5.894531 7.988281 C 6.085938 8.355469 6.535156 8.421875 6.832031 8.125 C 7.292969 7.667969 7.035156 6.691406 6.449219 6.703125 C 6.332031 6.703125 6.1875 6.722656 6.125 6.75 Z M 6.125 6.75 "/>
<path style=" stroke:none;fill-rule:nonzero;fill:rgb(0%,0%,0%);fill-opacity:1;" d="M 8.304688 7.128906 L 8.304688 7.5625 L 8.625 7.542969 C 9.019531 7.515625 9.160156 7.402344 9.160156 7.121094 C 9.160156 6.835938 8.972656 6.695312 8.59375 6.695312 L 8.304688 6.695312 Z M 8.304688 7.128906 "/>
</g>
</svg>
